<?xml version="1.0" encoding="utf-8"?>
<!-- Generator: Adobe Illustrator 23.1.1, SVG Export Plug-In . SVG Version: 6.00 Build 0)  -->
<svg width="20px" height="20px" version="1.1" id="Слой_1" xmlns="http://www.w3.org/2000/svg" xmlns:xlink="http://www.w3.org/1999/xlink" x="0px" y="0px"
	 viewBox="0 0 20 20" style="enable-background:new 0 0 20 20;" xml:space="preserve">
<style type="text/css">
	.st0{fill:#529FD7;}
</style>
<title>B7DC852C-E8E2-4D9F-A507-D2D8EABDB848</title>
<desc>Created with sketchtool.</desc>
<g>
	<path class="st0" d="M11.3,15.5c-0.6-0.6-1.6-0.6-2.3,0l-3.1,3.1c-0.2,0.2-0.2,0.5-0.1,0.7c0.1,0.2,0.3,0.4,0.6,0.4l5.5,0
		c0.4,0,0.8-0.3,0.8-0.8c0,0,0,0,0-0.1C12.6,17.6,12.1,16.4,11.3,15.5"/>
	<path class="st0" d="M7,14.8c0-0.9-0.7-1.6-1.6-1.6l-4.4,0c-0.3,0-0.5,0.2-0.6,0.4c-0.1,0.2-0.1,0.4,0.1,0.7l3.9,3.9
		c0.3,0.3,0.8,0.3,1.1,0c0,0,0,0,0,0C6.5,17.2,7,16,7,14.8"/>
	<path class="st0" d="M4.5,11.2c0.6-0.6,0.6-1.6,0-2.3L1.4,5.8C1.2,5.6,1,5.6,0.8,5.7C0.6,5.7,0.4,5.9,0.4,6.2l0,5.5
		c0,0.4,0.3,0.8,0.8,0.8c0,0,0,0,0.1,0C2.4,12.5,3.6,12.1,4.5,11.2"/>
	<path class="st0" d="M5.2,6.9c0.9,0,1.6-0.7,1.6-1.6l0-4.4c0-0.3-0.2-0.5-0.4-0.6C6.4,0.3,6.1,0.3,5.9,0.5L2,4.4
		C1.7,4.7,1.7,5.2,2,5.5c0,0,0,0,0,0C2.9,6.4,4,6.9,5.2,6.9"/>
	<path class="st0" d="M8.8,4.4c0.6,0.6,1.6,0.6,2.3,0l3.1-3.1c0.2-0.2,0.2-0.5,0.1-0.7c-0.1-0.2-0.3-0.4-0.6-0.4l-5.5,0
		c-0.4,0-0.8,0.3-0.8,0.8c0,0,0,0,0,0.1C7.5,2.4,8,3.6,8.8,4.4"/>
	<path class="st0" d="M13.1,5.2c0,0.9,0.7,1.6,1.6,1.6l4.4,0c0.3,0,0.5-0.2,0.6-0.4c0.1-0.2,0.1-0.4-0.1-0.7l-3.9-3.9
		c-0.3-0.3-0.8-0.3-1.1,0c0,0,0,0,0,0C13.6,2.8,13.1,4,13.1,5.2"/>
	<path class="st0" d="M15.6,8.7c-0.6,0.6-0.6,1.6,0,2.3l3.1,3.1c0.2,0.2,0.5,0.2,0.7,0.1c0.2-0.1,0.4-0.3,0.4-0.6l0-5.5
		c0-0.4-0.3-0.8-0.8-0.8c0,0,0,0-0.1,0C17.7,7.4,16.5,7.9,15.6,8.7"/>
	<path class="st0" d="M14.9,13c-0.9,0-1.6,0.7-1.6,1.6l0,4.4c0,0.3,0.2,0.5,0.4,0.6c0.2,0.1,0.4,0.1,0.7-0.1l3.9-3.9
		c0.3-0.3,0.3-0.8,0-1.1c0,0,0,0,0,0C17.3,13.5,16.1,13,14.9,13"/>
</g>
</svg>
