<svg width="75" height="25" viewBox="0 0 75 25" fill="none" xmlns="http://www.w3.org/2000/svg">
<path fill-rule="evenodd" clip-rule="evenodd" d="M62 4.93701H57.4437V9.55886H62V4.93701ZM57.6556 9.34878V5.1471H61.7881V9.34878H57.6556ZM58.2914 6.72273H58.7682V7.91101H58.9801V6.72273H59.4569V6.51264H58.2914V6.72273ZM59.849 6.51264H59.5629V7.91101H59.7748V6.92506L60.1245 7.87819H60.3788L60.7285 6.92506V7.91101H60.9404V6.51264H60.6543L60.2517 7.61021L59.849 6.51264ZM41.4575 7.2745C42.0433 6.85528 42.4937 6.69906 43.0884 6.7253C43.9308 6.76191 44.484 7.2745 44.7977 8.08244C45.2499 9.24065 45.2167 10.5508 44.7356 11.7523C44.188 13.1205 42.4417 13.6739 41.1162 12.9533C41.0747 12.9306 41.0329 12.9088 40.9815 12.8819L40.9814 12.8819L40.9814 12.8819L40.8998 12.8391V15.9666H40.0656V6.92423H40.7311C40.7116 6.93961 40.8929 7.76268 40.8929 7.76268C40.8929 7.76268 41.2655 7.42279 41.4575 7.2745ZM40.7324 6.92423C40.7319 6.92394 40.7314 6.92394 40.7311 6.92423H40.7324ZM40.8929 12.0953C41.7561 12.8709 43.5174 12.6091 43.9138 11.5436C44.2996 10.5069 44.3247 9.43043 43.9697 8.3784C43.6548 7.44475 42.6737 7.28671 41.8338 7.8237C41.5171 8.0263 41.0184 8.43393 40.8929 8.67802V12.0953ZM54.8775 9.47811L54.8775 9.47811L54.8776 9.47813C55.175 9.55646 55.427 9.62284 55.5082 9.65491C56.5746 10.021 57.0839 10.6374 57.0143 11.5466C56.956 12.3045 56.2923 12.9398 55.4091 13.1442C54.3277 13.3944 53.2996 13.2272 52.2973 12.6816C52.3474 12.5743 52.4247 12.4468 52.4835 12.3499L52.4835 12.3499L52.4835 12.3498L52.4836 12.3497C52.5196 12.2903 52.5487 12.2424 52.5601 12.2179C53.1246 12.4009 53.5418 12.4876 54.2537 12.523C54.5234 12.5364 56.0232 12.5272 56.0728 11.4246C56.0822 11.023 55.7591 10.6923 55.2573 10.5092C55.15 10.4698 54.9736 10.4174 54.7631 10.355L54.7631 10.355L54.7631 10.355C54.1719 10.1794 53.312 9.92411 52.9572 9.65186C52.1154 9.10083 52.126 7.81264 52.9365 7.21401C53.4182 6.85825 53.9269 6.73437 54.5046 6.72583C55.209 6.71545 55.9536 6.87167 56.6298 7.16336C56.6042 7.2369 56.5693 7.34239 56.5355 7.44449C56.5024 7.54488 56.4703 7.64198 56.4491 7.70219C55.9473 7.51912 55.2667 7.42637 54.6671 7.45688C53.4383 7.51912 53.1673 8.02134 53.1573 8.41737C53.1472 8.80426 53.3893 9.02211 53.718 9.14476C53.9717 9.23953 54.4677 9.37016 54.8775 9.47811ZM50.4945 7.46225C49.9601 6.9814 49.3115 6.7489 48.6717 6.73853C48.0319 6.7489 47.3833 6.9814 46.8488 7.46225C46.4085 7.85768 46.1626 8.3123 45.9744 8.98355C45.8709 9.35395 45.7863 10.3871 45.9826 11.0876C46.2925 12.3264 47.2559 13.152 48.4672 13.2454C48.5355 13.2509 48.8071 13.2509 48.8755 13.2454C50.0868 13.152 51.0502 12.3264 51.3601 11.0876C51.5564 10.3871 51.4718 9.35395 51.3683 8.98355C51.1801 8.3123 50.9342 7.85768 50.4945 7.46225ZM50.3126 11.4928C50.0008 12.1811 49.435 12.5259 48.671 12.5253C47.907 12.5259 47.3412 12.1805 47.0295 11.4928C46.5917 10.5256 46.7152 9.28378 47.0351 8.5692C47.3419 7.88453 47.9051 7.483 48.671 7.47019C49.4369 7.483 49.9996 7.88453 50.3069 8.5692C50.6275 9.28378 50.7504 10.5256 50.3126 11.4928Z" fill="black"/>
<path d="M19.1921 9.66382L24.702 12.9201L18.053 15.231L14 12.8151L19.1921 9.66382Z" fill="url(#paint0_linear)"/>
<path d="M15.9073 16.4916L18.5563 14.916L24.0662 18.1723L26.8212 19.8005L21.5232 22.8992L17.3377 20.4832L14 18.4874V17.6471L15.9073 16.4916Z" fill="url(#paint1_linear)"/>
<path fill-rule="evenodd" clip-rule="evenodd" d="M30.2119 3.15126L24.9139 0L14 6.5126V12.8151L30.2119 3.15126ZM19.7219 21.8487L25.0199 25L36.0398 18.4874V12.1849L19.7219 21.8487ZM14 15.336L30.212 5.88225L33.0729 4.20158L36.0398 5.88225V8.82343L30.212 12.1848L19.1921 18.6974L16.861 20.168L14 18.4873V15.336Z" fill="url(#paint2_linear)"/>
<defs>
<linearGradient id="paint0_linear" x1="21.4172" y1="11.8697" x2="14.2129" y2="12.5109" gradientUnits="userSpaceOnUse">
<stop stop-color="#EE7508"/>
<stop offset="1" stop-color="#F3941C"/>
</linearGradient>
<linearGradient id="paint1_linear" x1="26.0794" y1="18.9076" x2="18.8437" y2="19.9588" gradientUnits="userSpaceOnUse">
<stop stop-color="#EE7508"/>
<stop offset="1" stop-color="#F3941C"/>
</linearGradient>
<linearGradient id="paint2_linear" x1="35.6159" y1="7.98319" x2="14.0583" y2="17.2573" gradientUnits="userSpaceOnUse">
<stop stop-color="#F3941C"/>
<stop offset="1" stop-color="#EE7508"/>
</linearGradient>
</defs>
</svg>