<svg width="75" height="25" viewBox="0 0 75 25" fill="none" xmlns="http://www.w3.org/2000/svg">
<path d="M39.0742 9.71789C39.9933 10.832 40.3295 12.1402 40.0817 13.6607H33.0467C33.3828 14.7744 34.3198 15.4991 35.5396 15.4991C36.5821 15.4991 37.3248 15.0751 37.802 14.2266L39.7639 15.1106C38.933 16.5955 37.3778 17.55 35.4688 17.55C34.0724 17.55 32.9231 17.0905 31.9865 16.1889C31.0496 15.2872 30.5901 14.1558 30.5901 12.812C30.5901 11.4686 31.0495 10.3371 31.9688 9.43544C32.8877 8.53379 34.0195 8.07431 35.3805 8.07431C36.9177 8.07418 38.1375 8.62191 39.0742 9.71789ZM33.082 11.8396H37.6955C37.3594 10.7964 36.4937 10.1249 35.3801 10.1249C34.3195 10.1249 33.4178 10.7966 33.082 11.8396Z" fill="#1E4078"/>
<path d="M49.7854 9.43504C50.6163 10.3371 51.0403 11.4685 51.0403 12.8119C51.0403 14.1557 50.6163 15.2871 49.7854 16.1885C48.9548 17.0905 47.9119 17.55 46.6569 17.55C45.4902 17.55 44.518 17.1259 43.7578 16.2948V20.9091H41.3717V8.25081H43.7578V9.32909C44.5178 8.49838 45.4902 8.07391 46.6569 8.07391C47.9117 8.07391 48.9547 8.53365 49.7854 9.43504ZM46.1619 15.3755C46.8514 15.3755 47.4168 15.128 47.8766 14.633C48.3357 14.1557 48.5658 13.537 48.5658 12.812C48.5658 12.0873 48.3357 11.4686 47.8766 10.9913C47.4168 10.5137 46.8514 10.2661 46.1619 10.2661C45.4724 10.2661 44.9066 10.5136 44.4472 10.9913C43.9878 11.4863 43.7577 12.0873 43.7577 12.812C43.7577 13.537 43.9878 14.1558 44.4472 14.633C44.9067 15.1279 45.4724 15.3755 46.1619 15.3755Z" fill="#1E4078"/>
<path d="M54.6282 13.8905L58.9764 8.25079H61.292V17.3734H58.9056V11.7337L54.5577 17.3734H52.2421V8.25079H54.6282V13.8905Z" fill="#1E4078"/>
<path d="M65.5869 17.3732H63.2004V8.25067H71.9328V17.3732H69.5461V10.3546H65.5869V17.3732Z" fill="#1E4078"/>
<path d="M9.51012 1L15.0085 7.72297L12.2522 11.089L4 1H9.51012Z" fill="url(#paint0_linear)"/>
<path d="M19.6949 5.35399C19.6923 5.3605 17.7611 7.71907 17.7611 7.71907L12.2653 1H17.018C17.4982 1 17.9524 1.21607 18.2569 1.58704L19.6871 3.33645C20.1621 3.91568 20.179 4.75914 19.6949 5.35399Z" fill="url(#paint1_linear)"/>
<path d="M26.5804 13.7912L18.707 23.4143C18.4024 23.7852 17.9483 24 17.4693 24H12.7153L24.6544 9.40991L26.5804 11.7646C27.0632 12.3542 27.0632 13.2029 26.5804 13.7912Z" fill="url(#paint2_linear)"/>
<path d="M22.4447 8.73433L9.95262 24H4.4386L17.761 7.71905C17.761 7.71905 19.6923 5.36048 19.6949 5.35397C20.179 4.75912 20.1621 3.91566 19.6871 3.33643L22.4447 6.70768C22.9275 7.29732 22.9275 8.14469 22.4447 8.73433Z" fill="url(#paint3_linear)"/>
<defs>
<linearGradient id="paint0_linear" x1="4.17098" y1="2.20941" x2="19.6614" y2="11.0594" gradientUnits="userSpaceOnUse">
<stop stop-color="#F6B960"/>
<stop offset="1" stop-color="#E7362F"/>
</linearGradient>
<linearGradient id="paint1_linear" x1="10.5374" y1="0.321962" x2="26.0278" y2="9.17195" gradientUnits="userSpaceOnUse">
<stop offset="0.0472" stop-color="#F6B960"/>
<stop offset="0.7614" stop-color="#E7362F"/>
</linearGradient>
<linearGradient id="paint2_linear" x1="14.6256" y1="25.1073" x2="26.5169" y2="10.4054" gradientUnits="userSpaceOnUse">
<stop stop-color="#E7362F"/>
<stop offset="1" stop-color="#F6B960"/>
</linearGradient>
<linearGradient id="paint3_linear" x1="5.76622" y1="25.1349" x2="20.7336" y2="6.45734" gradientUnits="userSpaceOnUse">
<stop stop-color="#E7362F"/>
<stop offset="1" stop-color="#F6B960"/>
</linearGradient>
</defs>
</svg>
