<svg width="38" height="13" viewBox="0 0 38 13" fill="none" xmlns="http://www.w3.org/2000/svg">
<g clip-path="url(#clip0_1860_88115)">
<path d="M37.2986 6.17969H24.179V6.97723V12.9987H28.3395V9.15719H30.0941L32.4469 12.9987H37.179L34.4008 8.83817C35.7301 8.35965 36.7935 7.3893 37.2986 6.17969Z" fill="#006644"/>
<path d="M23.8999 0C23.9132 0.345603 23.9664 0.691207 24.0461 1.01023C24.0594 1.08998 24.086 1.15644 24.0993 1.2362C24.1126 1.26278 24.1126 1.28937 24.1259 1.32924C24.8702 3.682 27.0768 5.39673 29.6688 5.39673H37.3518C37.405 5.13088 37.4316 4.86503 37.4316 4.58589C37.4316 3.24335 36.86 2.04703 35.9428 1.20961C35.132 0.465235 34.0553 0 32.859 0H23.8999Z" fill="url(#paint0_linear_1860_88115)"/>
<path d="M10.1421 1.71472L8.41411 7.69632H8.12168L6.39366 1.71472C6.11452 0.691207 5.18405 0 4.13395 0H0V13H4.13395V5.31697H4.42638L6.79243 13H9.74335L12.1227 5.31697H12.4151V13H16.5491V0H12.4151C11.365 0 10.4346 0.691207 10.1421 1.71472Z" fill="#006644"/>
<path d="M22.4643 0H18.3303V13H22.4643V0Z" fill="#006644"/>
</g>
<defs>
<linearGradient id="paint0_linear_1860_88115" x1="23.9038" y1="2.69536" x2="37.4395" y2="2.69536" gradientUnits="userSpaceOnUse">
<stop stop-color="#50A9DF"/>
<stop offset="1" stop-color="#2D3E91"/>
</linearGradient>
<clipPath id="clip0_1860_88115">
<rect width="37.4448" height="13" fill="white"/>
</clipPath>
</defs>
</svg>
